<svg id="Layer_2" data-name="Layer 2" xmlns="http://www.w3.org/2000/svg" viewBox="0 0 500.17 461.63"><defs><style>.cls-1{fill:#eaf7f7;}.cls-2,.cls-9{fill:#32aeb1;}.cls-3{fill:#ddd3bc;}.cls-4{fill:#f4f4f4;}.cls-5{fill:#5fc2c2;}.cls-6{fill:#79a7bc;}.cls-7{fill:#fff;}.cls-8{fill:#e04e44;}.cls-9{font-size:58.36px;font-family:OpenSans-Bold, Open Sans;font-weight:700;}.cls-10{fill:#787878;}.cls-11{fill:#31aeb1;}</style></defs><title>verified</title><rect class="cls-1" x="14.06" y="81.54" width="472.05" height="341.3"/><rect class="cls-2" y="116.13" width="500.17" height="12.87"/><rect class="cls-1" x="14.06" width="472.05" height="81.54"/><rect class="cls-3" x="62.35" y="150.09" width="168.59" height="311.53"/><rect class="cls-4" x="71.57" y="163.86" width="148.65" height="297.77"/><rect class="cls-5" x="86.13" y="183.74" width="38.67" height="127.05"/><polygon class="cls-2" points="92.66 188.76 124.8 188.76 124.8 183.74 86.14 183.74 86.14 310.79 92.66 310.79 92.66 188.76"/><rect class="cls-5" x="161.96" y="183.74" width="38.67" height="127.05"/><polygon class="cls-2" points="168.49 188.76 200.63 188.76 200.63 183.74 161.97 183.74 161.97 310.79 168.49 310.79 168.49 188.76"/><rect class="cls-6" x="141.91" y="162.4" width="3.01" height="299.22"/><rect class="cls-3" x="250.09" y="150.09" width="211.18" height="136.37"/><rect class="cls-7" x="258.72" y="160.87" width="194.51" height="114.77"/><polygon class="cls-2" points="266.46 164.64 452.93 164.64 452.93 160.5 258.42 160.5 258.42 275.64 266.46 275.64 266.46 164.64"/><rect class="cls-2" x="230.94" y="322.62" width="255.17" height="139.01"/><rect class="cls-2" x="14.5" y="322.62" width="47.85" height="139.01"/><circle class="cls-1" cx="73.31" cy="59.28" r="46.29"/><polygon class="cls-8" points="103.82 48.48 84.11 48.48 84.11 28.77 62.5 28.77 62.5 48.48 42.79 48.48 42.79 70.09 62.5 70.09 62.5 89.8 84.11 89.8 84.11 70.09 103.82 70.09 103.82 48.48"/><rect class="cls-1" x="133.51" y="24.55" width="333.45" height="70.81"/><text class="cls-9" transform="translate(119.71 78.78)">PHARMACY</text><path class="cls-10" d="M338.44,218.2a25.15,25.15,0,0,1-10.51,10,37,37,0,0,1-17.6,3.79h-13v30.79H276.46V177h33.87a38.51,38.51,0,0,1,17.4,3.53,24.38,24.38,0,0,1,10.62,9.77,28.48,28.48,0,0,1,3.53,14.24A27.63,27.63,0,0,1,338.44,218.2Zm-20.79-5.7a12.51,12.51,0,0,0,0-15.89,12.48,12.48,0,0,0-8.92-2.85H297.33v21.56h11.39a12.45,12.45,0,0,0,8.92-2.79Z"/><path class="cls-11" d="M421.3,182.34A38.42,38.42,0,0,1,437,197.44a46.84,46.84,0,0,1,0,44.78,38.2,38.2,0,0,1-15.78,15.15,50,50,0,0,1-23.64,5.38H365.44V177h32.13A49.9,49.9,0,0,1,421.3,182.34Zm-6.61,55.86a24.52,24.52,0,0,0,6.61-18.34,22.92,22.92,0,0,0-25.21-25.07h-9.77v49.87h9.77A25.24,25.24,0,0,0,414.69,238.2Z"/><polygon class="cls-10" points="333.79 228.69 355.53 228.66 323.34 262.27 322.8 262.81 301.09 262.84 333.79 228.69"/><polygon class="cls-10" points="355.44 262.69 331.2 262.84 295.45 225.84 294.94 225.32 319.21 225.15 355.44 262.69"/><polygon class="cls-7" points="274.7 359.91 289.44 434.91 444.18 371.91 433.68 347.07 307.93 404.91 297.09 347.07 274.7 359.91"/></svg>