<?xml version="1.0" encoding="utf-8"?>
<!-- Generator: Adobe Illustrator 21.0.0, SVG Export Plug-In . SVG Version: 6.00 Build 0)  -->
<svg version="1.1" xmlns="http://www.w3.org/2000/svg" xmlns:xlink="http://www.w3.org/1999/xlink" x="0px" y="0px"
	 viewBox="0 0 260.6 234.9" style="enable-background:new 0 0 260.6 234.9;" xml:space="preserve">
<style type="text/css">
	.st0{fill:#E0E0E0;}
	.st1{display:none;}
	.st2{fill:#F5F5F5;}
	.st3{fill:#FAFAFA;}
	.st4{opacity:0.7;fill:#FAFAFA;}
	.st5{fill:#FFFFFF;}
	.st6{fill:#27DEBF;}
	.st7{opacity:0.4;fill:#FFFFFF;}
	.st8{opacity:0.1;}
	.st9{fill:#32AEB1;}
	.st10{opacity:0.2;clip-path:url(#XMLID_2_);}
	.st11{opacity:0.1;clip-path:url(#XMLID_2_);}
	.st12{fill:#EBEBEB;}
	.st13{fill:#DFEFEF;}
</style>
<g id="Floor">
</g>
<g id="Shadows">
	<path id="Shadow_15_" class="st0" d="M93.2,181.1c21.3,12.3,21.3,32.3,0,44.6C71.9,238,37.3,238,16,225.7
		c-21.3-12.3-21.3-32.3,0-44.6C37.3,168.7,71.9,168.7,93.2,181.1z"/>
</g>
<g id="Clouds" class="st1">
</g>
<g id="Plants" class="st1">
</g>
<g id="Blister">
	<path id="XMLID_224_" class="st0" d="M259.9,215.3L191.7,29.2c-2-5.5-8.5-10.7-14.5-11.7L67.1,0.1c-6-0.9-9.2,2.8-7.1,8.3
		l68.2,186.1c2,5.5,8.5,10.7,14.5,11.7l110.1,17.4C258.8,224.5,262,220.8,259.9,215.3z"/>
	<path id="XMLID_223_" class="st2" d="M253.9,210.9L187.8,30.8c-2-5.3-8.1-10.5-13.7-11.4L70.7,1.4c-5.6-1-8.6,2.6-6.6,7.9
		l66.1,180.2c2,5.3,8.1,10.5,13.7,11.4l103.4,18C252.9,219.8,255.8,216.3,253.9,210.9z"/>
	<path id="XMLID_222_" class="st3" d="M174.1,19.3L80.9,3.1l0,0c28.3,6.4,84.1,16.1,91.4,18.6c7.4,2.5,11.5,4.3,16.8,18.9
		c5.4,14.6,61.1,160.4,61.1,160.4L187.8,30.8C185.9,25.4,179.7,20.3,174.1,19.3z"/>
	<path id="XMLID_221_" class="st0" d="M122,18.4c0.7,0.1,1.4,0.8,1.7,1.5l65.9,179.6c0.3,0.7-0.1,1.1-0.8,1
		c-0.7-0.1-1.4-0.8-1.7-1.5L121.3,19.4C121,18.7,121.3,18.2,122,18.4z"/>
	<path id="XMLID_220_" class="st4" d="M168.1,171.5L168.1,171.5c-0.2-0.6-0.5-1.1-0.8-1.7c-0.1-0.1-0.3-0.5-0.3-0.6
		c-2.5-4.1-7.6-7.8-12.4-8.6l-17.8-3.1c-0.1,0-0.1,0-0.1,0c-2-0.4-4.2-0.3-6.2,0.4c-5.8,2.1-8.8,8.5-6.6,14.3
		c0.2,0.6,0.5,1.1,0.8,1.6c0.1,0.1,0.3,0.4,0.4,0.6c2.6,4.1,7.6,7.8,12.3,8.6l17.8,3.1c0.1,0,0.1,0,0.1,0c2,0.4,4.2,0.3,6.2-0.4
		C167.3,183.6,170.2,177.2,168.1,171.5L168.1,171.5L168.1,171.5z"/>
	<path id="XMLID_219_" class="st0" d="M130.1,164.8c1.8,5,7.9,9.9,13.5,10.8l17.8,3.1c5.6,1,8.7-2.3,6.8-7.3
		c-1.8-5-7.9-9.9-13.5-10.8l-17.8-3.1C131.3,156.6,128.2,159.8,130.1,164.8z"/>
	<path id="XMLID_218_" class="st5" d="M130.1,158.1c-5.5,2.3-8.3,8.5-6.2,14.1c0.2,0.6,0.5,1.1,0.8,1.6c0.1,0.1,0.3,0.4,0.4,0.6
		c2.2,3.5,6.2,6.7,10.3,8.1c-6.1-4.1-9.7-6.9-10.8-12.8C123.4,163.6,127.6,159.5,130.1,158.1z"/>
	<g>
		<path id="XMLID_217_" class="st2" d="M146.6,181.7c-1.3-0.2-2.5-1.4-3.2-3.3c-1.4-3.9-0.4-9.7,2.2-12.9c1.3-1.6,2.8-2.3,4.2-2
			l9.5,1.7c5,0.9,8.4,5.7,7.5,10.7c-0.9,5-5.7,8.4-10.7,7.5L146.6,181.7z"/>
		<path id="XMLID_215_" class="st6" d="M133.5,179.4c-5-0.9-8.4-5.7-7.5-10.7c0.9-5,5.7-8.4,10.7-7.5l13.2,2.3
			c-1.3-0.2-2.8,0.4-4.2,2c-2.7,3.2-3.7,9-2.2,12.9c0.7,2,1.9,3.1,3.2,3.3L133.5,179.4z"/>
		<path id="XMLID_213_" class="st7" d="M130.7,165.9c-0.3,1.9,1,3.8,2.9,4.1l15.9,2.8c0.4-2.3,0.3-4.8-0.4-6.7
			c-0.1-0.2-0.2-0.4-0.2-0.6l-14-2.5C132.9,162.7,131.1,164,130.7,165.9z"/>
		<path id="XMLID_212_" class="st2" d="M146.6,181.7c-1.3-0.2-2.5-1.4-3.2-3.3c-1.4-3.9-0.4-9.7,2.2-12.9c1.3-1.6,2.8-2.3,4.2-2
			l9.5,1.7c5,0.9,8.4,5.7,7.5,10.7c-0.9,5-5.7,8.4-10.7,7.5L146.6,181.7z"/>
		<path id="XMLID_210_" class="st8" d="M145.6,165.5c-2.7,3.2-3.7,9-2.2,12.9c0.7,2,1.9,3.1,3.2,3.3l-0.8-0.1l-0.6-0.1
			c-1.3-0.2-2.5-1.4-3.2-3.3c-1.4-3.9-0.4-9.7,2.2-12.9c1.3-1.6,2.8-2.3,4.2-2l1.3,0.2C148.4,163.3,146.9,163.9,145.6,165.5z"/>
		<path id="XMLID_209_" class="st0" d="M166,170.2L166,170.2c0.8,1.7,1.2,3.7,0.8,5.7c-0.9,5-5.7,8.4-10.7,7.5l-9.5-1.7
			c-1.3-0.2-2.5-1.4-3.2-3.3c-0.3-0.9-0.5-1.8-0.6-2.8c5.6,1,12.4,2.2,15.9,2.8C164,179.3,167,173,166,170.2z"/>
		<path id="XMLID_208_" class="st5" d="M163.2,171.6c-0.3,1.9-2.2,3.2-4.1,2.9l-16.1-2.8c0.4-2.3,1.3-4.6,2.7-6.2
			c0.1-0.2,0.3-0.3,0.4-0.5l14.2,2.5C162.2,167.9,163.5,169.7,163.2,171.6z"/>
		<path id="XMLID_207_" class="st8" d="M126.2,167.6c0.1-0.2,0.1-0.3,0.2-0.5c0-0.1,0.1-0.2,0.1-0.4c0.1-0.1,0.1-0.3,0.2-0.4
			c0.1-0.1,0.1-0.3,0.2-0.4c0-0.1,0.1-0.1,0.1-0.2c0.3-0.6,0.7-1.1,1.1-1.6c0,0,0,0,0,0c0.2-0.2,0.3-0.3,0.5-0.5l0,0
			c-1.9,2.4-1.1,9.2,4.1,10.2c1.8,0.3,4.5,0.8,10,1.8c0.1,1,0.3,1.9,0.6,2.8c0.7,2,1.9,3.1,3.2,3.3l-13.2-2.3
			c-5-0.9-8.4-5.7-7.5-10.7c0-0.3,0.1-0.6,0.2-0.8C126.2,167.8,126.2,167.7,126.2,167.6z"/>
	</g>
	<path id="XMLID_206_" class="st4" d="M234.6,182.7L234.6,182.7c-0.2-0.6-0.5-1.1-0.8-1.7c-0.1-0.1-0.3-0.5-0.3-0.6
		c-2.5-4.1-7.6-7.8-12.4-8.6l-17.8-3.1c-0.1,0-0.1,0-0.1,0c-2-0.4-4.2-0.3-6.2,0.4c-5.8,2.1-8.8,8.5-6.6,14.3
		c0.2,0.6,0.5,1.1,0.8,1.6c0.1,0.1,0.3,0.4,0.4,0.6c2.6,4.1,7.6,7.8,12.3,8.6l17.8,3.1c0.1,0,0.1,0,0.1,0c2,0.4,4.2,0.3,6.2-0.4
		C233.8,194.9,236.7,188.5,234.6,182.7L234.6,182.7L234.6,182.7z"/>
	<path id="XMLID_205_" class="st0" d="M196.6,176.1c1.8,5,7.9,9.9,13.5,10.8l17.8,3.1c5.6,1,8.7-2.3,6.8-7.3
		c-1.8-5-7.9-9.9-13.5-10.8l-17.8-3.1C197.8,167.9,194.7,171.1,196.6,176.1z"/>
	<path id="XMLID_204_" class="st5" d="M196.6,169.4c-5.5,2.3-8.3,8.5-6.2,14.1c0.2,0.6,0.5,1.1,0.8,1.6c0.1,0.1,0.3,0.4,0.4,0.6
		c2.2,3.5,6.2,6.7,10.3,8.1c-6.1-4.1-9.7-6.9-10.8-12.8C189.9,174.9,194.1,170.8,196.6,169.4z"/>
	<g>
		<path id="XMLID_203_" class="st2" d="M213.1,193c-1.3-0.2-2.5-1.4-3.2-3.3c-1.4-3.9-0.4-9.7,2.2-12.9c1.3-1.6,2.8-2.3,4.2-2
			l9.5,1.7c5,0.9,8.4,5.7,7.5,10.7c-0.9,5-5.7,8.4-10.7,7.5L213.1,193z"/>
		<path id="XMLID_201_" class="st9" d="M200,190.7c-5-0.9-8.4-5.7-7.5-10.7c0.9-5,5.7-8.4,10.7-7.5l13.2,2.3c-1.3-0.2-2.8,0.4-4.2,2
			c-2.7,3.2-3.7,9-2.2,12.9c0.7,2,1.9,3.1,3.2,3.3L200,190.7z"/>
		<path id="XMLID_199_" class="st7" d="M197.2,177.2c-0.3,1.9,1,3.8,2.9,4.1l15.9,2.8c0.4-2.3,0.3-4.8-0.4-6.7
			c-0.1-0.2-0.2-0.4-0.2-0.6l-14-2.5C199.4,174,197.6,175.3,197.2,177.2z"/>
		<path id="XMLID_198_" class="st2" d="M213.1,193c-1.3-0.2-2.5-1.4-3.2-3.3c-1.4-3.9-0.4-9.7,2.2-12.9c1.3-1.6,2.8-2.3,4.2-2
			l9.5,1.7c5,0.9,8.4,5.7,7.5,10.7c-0.9,5-5.7,8.4-10.7,7.5L213.1,193z"/>
		<path id="XMLID_196_" class="st8" d="M212.1,176.8c-2.7,3.2-3.7,9-2.2,12.9c0.7,2,1.9,3.1,3.2,3.3l-0.8-0.1l-0.6-0.1
			c-1.3-0.2-2.5-1.4-3.2-3.3c-1.4-3.9-0.4-9.7,2.2-12.9c1.3-1.6,2.8-2.3,4.2-2l1.3,0.2C214.9,174.6,213.4,175.2,212.1,176.8z"/>
		<path id="XMLID_195_" class="st0" d="M232.5,181.5L232.5,181.5c0.8,1.7,1.2,3.7,0.8,5.7c-0.9,5-5.7,8.4-10.7,7.5l-9.5-1.7
			c-1.3-0.2-2.5-1.4-3.2-3.3c-0.3-0.9-0.5-1.8-0.6-2.8c5.6,1,12.4,2.2,15.9,2.8C230.5,190.6,233.5,184.3,232.5,181.5z"/>
		<path id="XMLID_194_" class="st5" d="M229.7,182.9c-0.3,1.9-2.2,3.2-4.1,2.9l-16.1-2.8c0.4-2.3,1.3-4.6,2.7-6.2
			c0.1-0.2,0.3-0.3,0.4-0.5l14.2,2.5C228.7,179.2,230,181,229.7,182.9z"/>
		<path id="XMLID_193_" class="st8" d="M192.7,178.9c0.1-0.2,0.1-0.3,0.2-0.5c0-0.1,0.1-0.2,0.1-0.4c0.1-0.1,0.1-0.3,0.2-0.4
			c0.1-0.1,0.1-0.3,0.2-0.4c0-0.1,0.1-0.1,0.1-0.2c0.3-0.6,0.7-1.1,1.1-1.6c0,0,0,0,0,0c0.2-0.2,0.3-0.3,0.5-0.5l0,0
			c-1.9,2.4-1.1,9.2,4.1,10.2c1.8,0.3,4.5,0.8,10,1.8c0.1,1,0.3,1.9,0.6,2.8c0.7,2,1.9,3.1,3.2,3.3l-13.2-2.3
			c-5-0.9-8.4-5.7-7.5-10.7c0-0.3,0.1-0.6,0.2-0.8C192.7,179,192.7,179,192.7,178.9z"/>
	</g>
	<path id="XMLID_192_" class="st4" d="M151.5,126.1L151.5,126.1c-0.2-0.6-0.5-1.1-0.8-1.7c-0.1-0.1-0.3-0.5-0.3-0.6
		c-2.5-4.1-7.6-7.8-12.4-8.6l-17.8-3.1c-0.1,0-0.1,0-0.1,0c-2-0.4-4.2-0.3-6.2,0.4c-5.8,2.1-8.8,8.5-6.6,14.3
		c0.2,0.6,0.5,1.1,0.8,1.6c0.1,0.1,0.3,0.4,0.4,0.6c2.6,4.1,7.6,7.8,12.3,8.6l17.8,3.1c0.1,0,0.1,0,0.1,0c2,0.4,4.2,0.3,6.2-0.4
		C150.7,138.3,153.6,131.9,151.5,126.1L151.5,126.1L151.5,126.1z"/>
	<path id="XMLID_191_" class="st0" d="M113.4,119.5c1.8,5,7.9,9.9,13.5,10.8l17.8,3.1c5.6,1,8.7-2.3,6.8-7.3
		c-1.8-5-7.9-9.9-13.5-10.8l-17.8-3.1C114.7,111.2,111.6,114.5,113.4,119.5z"/>
	<path id="XMLID_190_" class="st5" d="M113.4,112.8c-5.5,2.3-8.3,8.5-6.2,14.1c0.2,0.6,0.5,1.1,0.8,1.6c0.1,0.1,0.3,0.4,0.4,0.6
		c2.2,3.5,6.2,6.7,10.3,8.1c-6.1-4.1-9.7-6.9-10.8-12.8C106.8,118.3,110.9,114.2,113.4,112.8z"/>
	<g>
		<path id="XMLID_189_" class="st2" d="M130,136.3c-1.3-0.2-2.5-1.4-3.2-3.3c-1.4-3.9-0.4-9.7,2.2-12.9c1.3-1.6,2.8-2.3,4.2-2
			l9.5,1.7c5,0.9,8.4,5.7,7.5,10.7c-0.9,5-5.7,8.4-10.7,7.5L130,136.3z"/>
		<path id="XMLID_187_" class="st9" d="M116.8,134c-5-0.9-8.4-5.7-7.5-10.7c0.9-5,5.7-8.4,10.7-7.5l13.2,2.3c-1.3-0.2-2.8,0.4-4.2,2
			c-2.7,3.2-3.7,9-2.2,12.9c0.7,2,1.9,3.1,3.2,3.3L116.8,134z"/>
		<path id="XMLID_185_" class="st7" d="M114.1,120.6c-0.3,1.9,1,3.8,2.9,4.1l15.9,2.8c0.4-2.3,0.3-4.8-0.4-6.7
			c-0.1-0.2-0.2-0.4-0.2-0.6l-14-2.5C116.3,117.4,114.5,118.7,114.1,120.6z"/>
		<path id="XMLID_184_" class="st2" d="M130,136.3c-1.3-0.2-2.5-1.4-3.2-3.3c-1.4-3.9-0.4-9.7,2.2-12.9c1.3-1.6,2.8-2.3,4.2-2
			l9.5,1.7c5,0.9,8.4,5.7,7.5,10.7c-0.9,5-5.7,8.4-10.7,7.5L130,136.3z"/>
		<path id="XMLID_182_" class="st8" d="M129,120.2c-2.7,3.2-3.7,9-2.2,12.9c0.7,2,1.9,3.1,3.2,3.3l-0.8-0.1l-0.6-0.1
			c-1.3-0.2-2.5-1.4-3.2-3.3c-1.4-3.9-0.4-9.7,2.2-12.9c1.3-1.6,2.8-2.3,4.2-2l1.3,0.2C131.8,117.9,130.3,118.6,129,120.2z"/>
		<path id="XMLID_181_" class="st0" d="M149.4,124.8L149.4,124.8c0.8,1.7,1.2,3.7,0.8,5.7c-0.9,5-5.7,8.4-10.7,7.5l-9.5-1.7
			c-1.3-0.2-2.5-1.4-3.2-3.3c-0.3-0.9-0.5-1.8-0.6-2.8c5.6,1,12.4,2.2,15.9,2.8C147.3,133.9,150.4,127.7,149.4,124.8z"/>
		<path id="XMLID_180_" class="st5" d="M146.5,126.3c-0.3,1.9-2.2,3.2-4.1,2.9l-16.1-2.8c0.4-2.3,1.3-4.6,2.7-6.2
			c0.1-0.2,0.3-0.3,0.4-0.5l14.2,2.5C145.6,122.5,146.9,124.4,146.5,126.3z"/>
		<path id="XMLID_179_" class="st8" d="M109.6,122.2c0.1-0.2,0.1-0.3,0.2-0.5c0-0.1,0.1-0.2,0.1-0.4c0.1-0.1,0.1-0.3,0.2-0.4
			c0.1-0.1,0.1-0.3,0.2-0.4c0-0.1,0.1-0.1,0.1-0.2c0.3-0.6,0.7-1.1,1.1-1.6c0,0,0,0,0,0c0.2-0.2,0.3-0.3,0.5-0.5l0,0
			c-1.9,2.4-1.1,9.2,4.1,10.2c1.8,0.3,4.5,0.8,10,1.8c0.1,1,0.3,1.9,0.6,2.8c0.7,2,1.9,3.1,3.2,3.3l-13.2-2.3
			c-5-0.9-8.4-5.7-7.5-10.7c0-0.3,0.1-0.6,0.2-0.8C109.5,122.4,109.6,122.3,109.6,122.2z"/>
	</g>
	<path id="XMLID_178_" class="st4" d="M218,137.4L218,137.4c-0.2-0.6-0.5-1.1-0.8-1.7c-0.1-0.1-0.3-0.5-0.3-0.6
		c-2.5-4.1-7.6-7.8-12.4-8.6l-17.8-3.1c-0.1,0-0.1,0-0.1,0c-2-0.4-4.2-0.3-6.2,0.4c-5.8,2.1-8.8,8.5-6.6,14.3
		c0.2,0.6,0.5,1.1,0.8,1.6c0.1,0.1,0.3,0.4,0.4,0.6c2.6,4.1,7.6,7.8,12.3,8.6l17.8,3.1c0.1,0,0.1,0,0.1,0c2,0.4,4.2,0.3,6.2-0.4
		C217.1,149.6,220.1,143.2,218,137.4L218,137.4L218,137.4z"/>
	<path id="XMLID_177_" class="st0" d="M179.9,130.8c1.8,5,7.9,9.9,13.5,10.8l17.8,3.1c5.6,1,8.7-2.3,6.8-7.3
		c-1.8-5-7.9-9.9-13.5-10.8l-17.8-3.1C181.2,122.5,178.1,125.8,179.9,130.8z"/>
	<path id="XMLID_176_" class="st5" d="M179.9,124.1c-5.5,2.3-8.3,8.5-6.2,14.1c0.2,0.6,0.5,1.1,0.8,1.6c0.1,0.1,0.3,0.4,0.4,0.6
		c2.2,3.5,6.2,6.7,10.3,8.1c-6.1-4.1-9.7-6.9-10.8-12.8C173.3,129.6,177.4,125.5,179.9,124.1z"/>
	<g>
		<path id="XMLID_175_" class="st2" d="M196.5,147.6c-1.3-0.2-2.5-1.4-3.2-3.3c-1.4-3.9-0.4-9.7,2.2-12.9c1.3-1.6,2.8-2.3,4.2-2
			l9.5,1.7c5,0.9,8.4,5.7,7.5,10.7c-0.9,5-5.7,8.4-10.7,7.5L196.5,147.6z"/>
		<path id="XMLID_173_" class="st9" d="M183.3,145.3c-5-0.9-8.4-5.7-7.5-10.7c0.9-5,5.7-8.4,10.7-7.5l13.2,2.3
			c-1.3-0.2-2.8,0.4-4.2,2c-2.7,3.2-3.7,9-2.2,12.9c0.7,2,1.9,3.1,3.2,3.3L183.3,145.3z"/>
		<path id="XMLID_171_" class="st7" d="M180.6,131.9c-0.3,1.9,1,3.8,2.9,4.1l15.9,2.8c0.4-2.3,0.3-4.8-0.4-6.7
			c-0.1-0.2-0.2-0.4-0.2-0.6l-14-2.5C182.8,128.7,180.9,130,180.6,131.9z"/>
		<path id="XMLID_170_" class="st2" d="M196.5,147.6c-1.3-0.2-2.5-1.4-3.2-3.3c-1.4-3.9-0.4-9.7,2.2-12.9c1.3-1.6,2.8-2.3,4.2-2
			l9.5,1.7c5,0.9,8.4,5.7,7.5,10.7c-0.9,5-5.7,8.4-10.7,7.5L196.5,147.6z"/>
		<path id="XMLID_168_" class="st8" d="M195.5,131.5c-2.7,3.2-3.7,9-2.2,12.9c0.7,2,1.9,3.1,3.2,3.3l-0.8-0.1l-0.6-0.1
			c-1.3-0.2-2.5-1.4-3.2-3.3c-1.4-3.9-0.4-9.7,2.2-12.9c1.3-1.6,2.8-2.3,4.2-2l1.3,0.2C198.3,129.2,196.8,129.9,195.5,131.5z"/>
		<path id="XMLID_167_" class="st0" d="M215.9,136.1L215.9,136.1c0.8,1.7,1.2,3.7,0.8,5.7c-0.9,5-5.7,8.4-10.7,7.5l-9.5-1.7
			c-1.3-0.2-2.5-1.4-3.2-3.3c-0.3-0.9-0.5-1.8-0.6-2.8c5.6,1,12.4,2.2,15.9,2.8C213.8,145.2,216.9,139,215.9,136.1z"/>
		<path id="XMLID_166_" class="st5" d="M213,137.6c-0.3,1.9-2.2,3.2-4.1,2.9l-16.1-2.8c0.4-2.3,1.3-4.6,2.7-6.2
			c0.1-0.2,0.3-0.3,0.4-0.5l14.2,2.5C212.1,133.8,213.4,135.7,213,137.6z"/>
		<path id="XMLID_165_" class="st8" d="M176.1,133.5c0.1-0.2,0.1-0.3,0.2-0.5c0-0.1,0.1-0.2,0.1-0.4c0.1-0.1,0.1-0.3,0.2-0.4
			c0.1-0.1,0.1-0.3,0.2-0.4c0-0.1,0.1-0.1,0.1-0.2c0.3-0.6,0.7-1.1,1.1-1.6c0,0,0,0,0,0c0.2-0.2,0.3-0.3,0.5-0.5l0,0
			c-1.9,2.4-1.1,9.2,4.1,10.2c1.8,0.3,4.5,0.8,10,1.8c0.1,1,0.3,1.9,0.6,2.8c0.7,2,1.9,3.1,3.2,3.3l-13.2-2.3
			c-5-0.9-8.4-5.7-7.5-10.7c0-0.3,0.1-0.6,0.2-0.8C176,133.7,176.1,133.6,176.1,133.5z"/>
	</g>
	<path id="XMLID_164_" class="st4" d="M134.9,80.8L134.9,80.8c-0.2-0.6-0.5-1.1-0.8-1.7c-0.1-0.1-0.3-0.5-0.3-0.6
		c-2.5-4.1-7.6-7.8-12.4-8.6l-17.8-3.1c-0.1,0-0.1,0-0.1,0c-2-0.4-4.2-0.3-6.2,0.4c-5.8,2.1-8.8,8.5-6.6,14.3
		c0.2,0.6,0.5,1.1,0.8,1.6c0.1,0.1,0.3,0.4,0.4,0.6c2.6,4.1,7.6,7.8,12.3,8.6l17.8,3.1c0.1,0,0.1,0,0.1,0c2,0.4,4.2,0.3,6.2-0.4
		C134,93,137,86.6,134.9,80.8L134.9,80.8L134.9,80.8z"/>
	<path id="XMLID_163_" class="st0" d="M96.8,74.1c1.8,5,7.9,9.9,13.5,10.8l17.8,3.1c5.6,1,8.7-2.3,6.8-7.3c-1.8-5-7.9-9.9-13.5-10.8
		l-17.8-3.1C98,65.9,95,69.1,96.8,74.1z"/>
	<path id="XMLID_162_" class="st5" d="M96.8,67.4c-5.5,2.3-8.3,8.5-6.2,14.1c0.2,0.6,0.5,1.1,0.8,1.6c0.1,0.1,0.3,0.4,0.4,0.6
		c2.2,3.5,6.2,6.7,10.3,8.1c-6.1-4.1-9.7-6.9-10.8-12.8C90.2,72.9,94.3,68.9,96.8,67.4z"/>
	<g>
		<path id="XMLID_161_" class="st2" d="M113.4,91c-1.3-0.2-2.5-1.4-3.2-3.3c-1.4-3.9-0.4-9.7,2.2-12.9c1.3-1.6,2.8-2.3,4.2-2
			l9.5,1.7c5,0.9,8.4,5.7,7.5,10.7c-0.9,5-5.7,8.4-10.7,7.5L113.4,91z"/>
		<path id="XMLID_159_" class="st9" d="M100.2,88.7c-5-0.9-8.4-5.7-7.5-10.7c0.9-5,5.7-8.4,10.7-7.5l13.2,2.3
			c-1.3-0.2-2.8,0.4-4.2,2c-2.7,3.2-3.7,9-2.2,12.9c0.7,2,1.9,3.1,3.2,3.3L100.2,88.7z"/>
		<path id="XMLID_157_" class="st7" d="M97.5,75.2c-0.3,1.9,1,3.8,2.9,4.1l15.9,2.8c0.4-2.3,0.3-4.8-0.4-6.7
			c-0.1-0.2-0.2-0.4-0.2-0.6l-14-2.5C99.7,72,97.8,73.3,97.5,75.2z"/>
		<path id="XMLID_156_" class="st2" d="M113.4,91c-1.3-0.2-2.5-1.4-3.2-3.3c-1.4-3.9-0.4-9.7,2.2-12.9c1.3-1.6,2.8-2.3,4.2-2
			l9.5,1.7c5,0.9,8.4,5.7,7.5,10.7c-0.9,5-5.7,8.4-10.7,7.5L113.4,91z"/>
		<path id="XMLID_154_" class="st8" d="M112.4,74.8c-2.7,3.2-3.7,9-2.2,12.9c0.7,2,1.9,3.1,3.2,3.3l-0.8-0.1l-0.6-0.1
			c-1.3-0.2-2.5-1.4-3.2-3.3c-1.4-3.9-0.4-9.7,2.2-12.9c1.3-1.6,2.8-2.3,4.2-2l1.3,0.2C115.2,72.6,113.7,73.2,112.4,74.8z"/>
		<path id="XMLID_153_" class="st0" d="M132.8,79.5L132.8,79.5c0.8,1.7,1.2,3.7,0.8,5.7c-0.9,5-5.7,8.4-10.7,7.5l-9.5-1.7
			c-1.3-0.2-2.5-1.4-3.2-3.3c-0.3-0.9-0.5-1.8-0.6-2.8c5.6,1,12.4,2.2,15.9,2.8C130.7,88.6,133.8,82.4,132.8,79.5z"/>
		<path id="XMLID_152_" class="st5" d="M129.9,80.9c-0.3,1.9-2.2,3.2-4.1,2.9L109.7,81c0.4-2.3,1.3-4.6,2.7-6.2
			c0.1-0.2,0.3-0.3,0.4-0.5l14.2,2.5C129,77.2,130.2,79,129.9,80.9z"/>
		<path id="XMLID_151_" class="st8" d="M93,76.9c0.1-0.2,0.1-0.3,0.2-0.5c0-0.1,0.1-0.2,0.1-0.4c0.1-0.1,0.1-0.3,0.2-0.4
			c0.1-0.1,0.1-0.3,0.2-0.4c0-0.1,0.1-0.1,0.1-0.2c0.3-0.6,0.7-1.1,1.1-1.6c0,0,0,0,0,0c0.2-0.2,0.3-0.3,0.5-0.5l0,0
			c-1.9,2.4-1.1,9.2,4.1,10.2c1.8,0.3,4.5,0.8,10,1.8c0.1,1,0.3,1.9,0.6,2.8c0.7,2,1.9,3.1,3.2,3.3l-13.2-2.3
			c-5-0.9-8.4-5.7-7.5-10.7c0-0.3,0.1-0.6,0.2-0.8C92.9,77.1,92.9,77,93,76.9z"/>
	</g>
	<path id="XMLID_150_" class="st4" d="M201.4,92.1L201.4,92.1c-0.2-0.6-0.5-1.1-0.8-1.7c-0.1-0.1-0.3-0.5-0.3-0.6
		c-2.5-4.1-7.6-7.8-12.4-8.6l-17.8-3.1c-0.1,0-0.1,0-0.1,0c-2-0.4-4.2-0.3-6.2,0.4c-5.8,2.1-8.8,8.5-6.6,14.3
		c0.2,0.6,0.5,1.1,0.8,1.6c0.1,0.1,0.3,0.4,0.4,0.6c2.6,4.1,7.6,7.8,12.3,8.6l17.8,3.1c0.1,0,0.1,0,0.1,0c2,0.4,4.2,0.3,6.2-0.4
		C200.5,104.3,203.5,97.8,201.4,92.1L201.4,92.1L201.4,92.1z"/>
	<path id="XMLID_149_" class="st0" d="M163.3,85.4c1.8,5,7.9,9.9,13.5,10.8l17.8,3.1c5.6,1,8.7-2.3,6.8-7.3
		c-1.8-5-7.9-9.9-13.5-10.8l-17.8-3.1C164.5,77.2,161.5,80.4,163.3,85.4z"/>
	<path id="XMLID_148_" class="st5" d="M163.3,78.7c-5.5,2.3-8.3,8.5-6.2,14.1c0.2,0.6,0.5,1.1,0.8,1.6c0.1,0.1,0.3,0.4,0.4,0.6
		c2.2,3.5,6.2,6.7,10.3,8.1c-6.1-4.1-9.7-6.9-10.8-12.8C156.7,84.2,160.8,80.2,163.3,78.7z"/>
	<g>
		<path id="XMLID_147_" class="st2" d="M179.9,102.3c-1.3-0.2-2.5-1.4-3.2-3.3c-1.4-3.9-0.4-9.7,2.2-12.9c1.3-1.6,2.8-2.3,4.2-2
			l9.5,1.7c5,0.9,8.4,5.7,7.5,10.7c-0.9,5-5.7,8.4-10.7,7.5L179.9,102.3z"/>
		<path id="XMLID_145_" class="st9" d="M166.7,100c-5-0.9-8.4-5.7-7.5-10.7c0.9-5,5.7-8.4,10.7-7.5l13.2,2.3c-1.3-0.2-2.8,0.4-4.2,2
			c-2.7,3.2-3.7,9-2.2,12.9c0.7,2,1.9,3.1,3.2,3.3L166.7,100z"/>
		<path id="XMLID_143_" class="st7" d="M164,86.5c-0.3,1.9,1,3.8,2.9,4.1l15.9,2.8c0.4-2.3,0.3-4.8-0.4-6.7
			c-0.1-0.2-0.2-0.4-0.2-0.6l-14-2.5C166.2,83.3,164.3,84.6,164,86.5z"/>
		<path id="XMLID_142_" class="st2" d="M179.9,102.3c-1.3-0.2-2.5-1.4-3.2-3.3c-1.4-3.9-0.4-9.7,2.2-12.9c1.3-1.6,2.8-2.3,4.2-2
			l9.5,1.7c5,0.9,8.4,5.7,7.5,10.7c-0.9,5-5.7,8.4-10.7,7.5L179.9,102.3z"/>
		<path id="XMLID_140_" class="st8" d="M178.9,86.1c-2.7,3.2-3.7,9-2.2,12.9c0.7,2,1.9,3.1,3.2,3.3l-0.8-0.1l-0.6-0.1
			c-1.3-0.2-2.5-1.4-3.2-3.3c-1.4-3.9-0.4-9.7,2.2-12.9c1.3-1.6,2.8-2.3,4.2-2l1.3,0.2C181.7,83.9,180.2,84.5,178.9,86.1z"/>
		<path id="XMLID_139_" class="st0" d="M199.3,90.8L199.3,90.8c0.8,1.7,1.2,3.7,0.8,5.7c-0.9,5-5.7,8.4-10.7,7.5l-9.5-1.7
			c-1.3-0.2-2.5-1.4-3.2-3.3c-0.3-0.9-0.5-1.8-0.6-2.8c5.6,1,12.4,2.2,15.9,2.8C197.2,99.9,200.3,93.7,199.3,90.8z"/>
		<path id="XMLID_98_" class="st5" d="M196.4,92.2c-0.3,1.9-2.2,3.2-4.1,2.9l-16.1-2.8c0.4-2.3,1.3-4.6,2.7-6.2
			c0.1-0.2,0.3-0.3,0.4-0.5l14.2,2.5C195.4,88.5,196.7,90.3,196.4,92.2z"/>
		<path id="XMLID_97_" class="st8" d="M159.5,88.2c0.1-0.2,0.1-0.3,0.2-0.5c0-0.1,0.1-0.2,0.1-0.4c0.1-0.1,0.1-0.3,0.2-0.4
			c0.1-0.1,0.1-0.3,0.2-0.4c0-0.1,0.1-0.1,0.1-0.2c0.3-0.6,0.7-1.1,1.1-1.6c0,0,0,0,0,0c0.2-0.2,0.3-0.3,0.5-0.5l0,0
			c-1.9,2.4-1.1,9.2,4.1,10.2c1.8,0.3,4.5,0.8,10,1.8c0.1,1,0.3,1.9,0.6,2.8c0.7,2,1.9,3.1,3.2,3.3l-13.2-2.3
			c-5-0.9-8.4-5.7-7.5-10.7c0-0.3,0.1-0.6,0.2-0.8C159.4,88.4,159.4,88.3,159.5,88.2z"/>
	</g>
	<path id="XMLID_96_" class="st4" d="M118.3,35.4L118.3,35.4c-0.2-0.6-0.5-1.1-0.8-1.7c-0.1-0.1-0.3-0.5-0.3-0.6
		c-2.5-4.1-7.6-7.8-12.4-8.6L87,21.5c-0.1,0-0.1,0-0.1,0c-2-0.4-4.2-0.3-6.2,0.4c-5.8,2.1-8.8,8.5-6.6,14.3c0.2,0.6,0.5,1.1,0.8,1.6
		c0.1,0.1,0.3,0.4,0.4,0.6c2.6,4.1,7.6,7.8,12.3,8.6l17.8,3.1c0.1,0,0.1,0,0.1,0c2,0.4,4.2,0.3,6.2-0.4
		C117.4,47.6,120.4,41.2,118.3,35.4L118.3,35.4L118.3,35.4z"/>
	<path id="XMLID_95_" class="st0" d="M80.2,28.8c1.8,5,7.9,9.9,13.5,10.8l17.8,3.1c5.6,1,8.7-2.3,6.8-7.3c-1.8-5-7.9-9.9-13.5-10.8
		L87,21.5C81.4,20.5,78.4,23.8,80.2,28.8z"/>
	<path id="XMLID_94_" class="st5" d="M80.2,22.1c-5.5,2.3-8.3,8.5-6.2,14.1c0.2,0.6,0.5,1.1,0.8,1.6c0.1,0.1,0.3,0.4,0.4,0.6
		c2.2,3.5,6.2,6.7,10.3,8.1c-6.1-4.1-9.7-6.9-10.8-12.8C73.6,27.6,77.7,23.5,80.2,22.1z"/>
	<g>
		<path id="XMLID_93_" class="st2" d="M96.7,45.7c-1.3-0.2-2.5-1.4-3.2-3.3c-1.4-3.9-0.4-9.7,2.2-12.9c1.3-1.6,2.8-2.3,4.2-2
			l9.5,1.7c5,0.9,8.4,5.7,7.5,10.7c-0.9,5-5.7,8.4-10.7,7.5L96.7,45.7z"/>
		<path id="XMLID_90_" class="st9" d="M83.6,43.3c-5-0.9-8.4-5.7-7.5-10.7c0.9-5,5.7-8.4,10.7-7.5l13.2,2.3c-1.3-0.2-2.8,0.4-4.2,2
			c-2.7,3.2-3.7,9-2.2,12.9c0.7,2,1.9,3.1,3.2,3.3L83.6,43.3z"/>
		<path id="XMLID_88_" class="st7" d="M80.9,29.9c-0.3,1.9,1,3.8,2.9,4.1l15.9,2.8c0.4-2.3,0.3-4.8-0.4-6.7
			c-0.1-0.2-0.2-0.4-0.2-0.6L85,27C83,26.7,81.2,28,80.9,29.9z"/>
		<path id="XMLID_87_" class="st2" d="M96.7,45.7c-1.3-0.2-2.5-1.4-3.2-3.3c-1.4-3.9-0.4-9.7,2.2-12.9c1.3-1.6,2.8-2.3,4.2-2
			l9.5,1.7c5,0.9,8.4,5.7,7.5,10.7c-0.9,5-5.7,8.4-10.7,7.5L96.7,45.7z"/>
		<path id="XMLID_85_" class="st8" d="M95.7,29.5c-2.7,3.2-3.7,9-2.2,12.9c0.7,2,1.9,3.1,3.2,3.3L96,45.5l-0.6-0.1
			c-1.3-0.2-2.5-1.4-3.2-3.3c-1.4-3.9-0.4-9.7,2.2-12.9c1.3-1.6,2.8-2.3,4.2-2l1.3,0.2C98.6,27.2,97.1,27.9,95.7,29.5z"/>
		<path id="XMLID_84_" class="st0" d="M116.2,34.2L116.2,34.2c0.8,1.7,1.2,3.7,0.8,5.7c-0.9,5-5.7,8.4-10.7,7.5l-9.5-1.7
			c-1.3-0.2-2.5-1.4-3.2-3.3c-0.3-0.9-0.5-1.8-0.6-2.8c5.6,1,12.4,2.2,15.9,2.8C114.1,43.2,117.1,37,116.2,34.2z"/>
		<path id="XMLID_83_" class="st5" d="M113.3,35.6c-0.3,1.9-2.2,3.2-4.1,2.9l-16.1-2.8c0.4-2.3,1.3-4.6,2.7-6.2
			c0.1-0.2,0.3-0.3,0.4-0.5l14.2,2.5C112.3,31.8,113.6,33.7,113.3,35.6z"/>
		<path id="XMLID_82_" class="st8" d="M76.3,31.5c0.1-0.2,0.1-0.3,0.2-0.5c0-0.1,0.1-0.2,0.1-0.4c0.1-0.1,0.1-0.3,0.2-0.4
			c0.1-0.1,0.1-0.3,0.2-0.4c0-0.1,0.1-0.1,0.1-0.2c0.3-0.6,0.7-1.1,1.1-1.6c0,0,0,0,0,0c0.2-0.2,0.3-0.3,0.5-0.5l0,0
			c-1.9,2.4-1.1,9.2,4.1,10.2c1.8,0.3,4.5,0.8,10,1.8c0.1,1,0.3,1.9,0.6,2.8c0.7,2,1.9,3.1,3.2,3.3l-13.2-2.3
			c-5-0.9-8.4-5.7-7.5-10.7c0-0.3,0.1-0.6,0.2-0.8C76.3,31.7,76.3,31.6,76.3,31.5z"/>
	</g>
	<path id="XMLID_81_" class="st4" d="M184.7,46.7L184.7,46.7c-0.2-0.6-0.5-1.1-0.8-1.7c-0.1-0.1-0.3-0.5-0.3-0.6
		c-2.5-4.1-7.6-7.8-12.4-8.6l-17.8-3.1c-0.1,0-0.1,0-0.1,0c-2-0.4-4.2-0.3-6.2,0.4c-5.8,2.1-8.8,8.5-6.6,14.3
		c0.2,0.6,0.5,1.1,0.8,1.6c0.1,0.1,0.3,0.4,0.4,0.6c2.6,4.1,7.6,7.8,12.3,8.6l17.8,3.1c0.1,0,0.1,0,0.1,0c2,0.4,4.2,0.3,6.2-0.4
		C183.9,58.9,186.9,52.5,184.7,46.7L184.7,46.7L184.7,46.7z"/>
	<path id="XMLID_80_" class="st0" d="M146.7,40.1c1.8,5,7.9,9.9,13.5,10.8l17.8,3.1c5.6,1,8.7-2.3,6.8-7.3c-1.8-5-7.9-9.9-13.5-10.8
		l-17.8-3.1C147.9,31.8,144.8,35.1,146.7,40.1z"/>
	<path id="XMLID_79_" class="st5" d="M146.7,33.4c-5.5,2.3-8.3,8.5-6.2,14.1c0.2,0.6,0.5,1.1,0.8,1.6c0.1,0.1,0.3,0.4,0.4,0.6
		c2.2,3.5,6.2,6.7,10.3,8.1c-6.1-4.1-9.7-6.9-10.8-12.8C140,38.9,144.2,34.8,146.7,33.4z"/>
	<g>
		<path id="XMLID_78_" class="st2" d="M163.2,56.9c-1.3-0.2-2.5-1.4-3.2-3.3c-1.4-3.9-0.4-9.7,2.2-12.9c1.3-1.6,2.8-2.3,4.2-2
			l9.5,1.7c5,0.9,8.4,5.7,7.5,10.7c-0.9,5-5.7,8.4-10.7,7.5L163.2,56.9z"/>
		<path id="XMLID_76_" class="st9" d="M150.1,54.6c-5-0.9-8.4-5.7-7.5-10.7c0.9-5,5.7-8.4,10.7-7.5l13.2,2.3c-1.3-0.2-2.8,0.4-4.2,2
			c-2.7,3.2-3.7,9-2.2,12.9c0.7,2,1.9,3.1,3.2,3.3L150.1,54.6z"/>
		<path id="XMLID_74_" class="st7" d="M147.4,41.2c-0.3,1.9,1,3.8,2.9,4.1l15.9,2.8c0.4-2.3,0.3-4.8-0.4-6.7
			c-0.1-0.2-0.2-0.4-0.2-0.6l-14-2.5C149.5,38,147.7,39.3,147.4,41.2z"/>
		<path id="XMLID_73_" class="st2" d="M163.2,56.9c-1.3-0.2-2.5-1.4-3.2-3.3c-1.4-3.9-0.4-9.7,2.2-12.9c1.3-1.6,2.8-2.3,4.2-2
			l9.5,1.7c5,0.9,8.4,5.7,7.5,10.7c-0.9,5-5.7,8.4-10.7,7.5L163.2,56.9z"/>
		<path id="XMLID_71_" class="st8" d="M162.2,40.8c-2.7,3.2-3.7,9-2.2,12.9c0.7,2,1.9,3.1,3.2,3.3l-0.8-0.1l-0.6-0.1
			c-1.3-0.2-2.5-1.4-3.2-3.3c-1.4-3.9-0.4-9.7,2.2-12.9c1.3-1.6,2.8-2.3,4.2-2l1.3,0.2C165.1,38.5,163.6,39.2,162.2,40.8z"/>
		<path id="XMLID_70_" class="st0" d="M182.6,45.5L182.6,45.5c0.8,1.7,1.2,3.7,0.8,5.7c-0.9,5-5.7,8.4-10.7,7.5l-9.5-1.7
			c-1.3-0.2-2.5-1.4-3.2-3.3c-0.3-0.9-0.5-1.8-0.6-2.8c5.6,1,12.4,2.2,15.9,2.8C180.6,54.5,183.6,48.3,182.6,45.5z"/>
		<path id="XMLID_69_" class="st5" d="M179.8,46.9c-0.3,1.9-2.2,3.2-4.1,2.9L159.6,47c0.4-2.3,1.3-4.6,2.7-6.2
			c0.1-0.2,0.3-0.3,0.4-0.5l14.2,2.5C178.8,43.1,180.1,45,179.8,46.9z"/>
		<path id="XMLID_68_" class="st8" d="M142.8,42.8c0.1-0.2,0.1-0.3,0.2-0.5c0-0.1,0.1-0.2,0.1-0.4c0.1-0.1,0.1-0.3,0.2-0.4
			c0.1-0.1,0.1-0.3,0.2-0.4c0-0.1,0.1-0.1,0.1-0.2c0.3-0.6,0.7-1.1,1.1-1.6c0,0,0,0,0,0c0.2-0.2,0.3-0.3,0.5-0.5l0,0
			c-1.9,2.4-1.1,9.2,4.1,10.2c1.8,0.3,4.5,0.8,10,1.8c0.1,1,0.3,1.9,0.6,2.8c0.7,2,1.9,3.1,3.2,3.3l-13.2-2.3
			c-5-0.9-8.4-5.7-7.5-10.7c0-0.3,0.1-0.6,0.2-0.8C142.8,43,142.8,42.9,142.8,42.8z"/>
	</g>
</g>
<g id="Pillls_Bottle_1">
</g>
<g id="Pills">
</g>
<g id="Pillls_Bottle_2">
	<g id="Pill_Bottle_2_">
		<path id="XMLID_138_" class="st9" d="M97.5,92.7c0-6.3-4.2-12.7-12.6-17.5c-16.8-9.7-43.9-9.7-60.7,0C15.9,80,11.7,86.4,11.7,92.7
			l0,0v110.2l0,0c0,6.3,4.2,12.7,12.6,17.5c16.8,9.7,43.9,9.7,60.7,0c8.4-4.8,12.6-11.2,12.6-17.5l0,0V92.7z"/>
		<path id="XMLID_136_" class="st7" d="M81,73.2v149.2c1.4-0.6,2.7-1.3,3.9-2c2.7-1.6,5-3.3,6.8-5.2V80.4c-1.8-1.8-4.1-3.6-6.8-5.2
			C83.7,74.5,82.4,73.8,81,73.2z"/>
		<path id="XMLID_134_" class="st7" d="M69.8,226.1c2.1-0.5,4.2-1,6.2-1.7V71.3c-2-0.7-4.1-1.2-6.2-1.7V226.1z"/>
		<path class="st8" d="M96.8,88.2c-2.2-3.2-5.6-6.1-10-8.7c-16.5-9.6-42.6-10.2-60.5-2c0-1.1,0-2.2,0-3.4c-0.7,0.3-1.4,0.7-2,1.1
			C15.9,80,11.7,86.4,11.7,92.7v14v2.8c0,0,0,0,0,0v69.4c0,0,0,0,0,0v24c0,6.3,4.2,12.7,12.6,17.5c16.8,9.7,43.9,9.7,60.7,0
			c3.1-1.8,5.7-3.8,7.7-6c-8,7.5-27.9,11.6-42.6,8.7c-14.8-2.9-23.7-12.3-23.7-19c0-1,0-18.6,0-21.8c8.3,4.5,19.1,6.6,29.7,6.6
			l0-44.5c-10.6,0-21.4-1.6-29.7-6.1c0-3.1,0-16.4,0-19.6c17.9,8.2,44,7.6,60.5-2c5-2.9,8.5-6.3,10.7-9.9v-14
			C97.5,91.2,97.3,89.7,96.8,88.2z"/>
		<path id="XMLID_133_" class="st8" d="M18.9,206c0-4,0-102.9,0-127c-4.8,4.2-7.3,9-7.3,13.8v110.2c0,6.3,4.2,12.7,12.6,17.5
			c4.8,2.7,10.4,4.7,16.3,5.9C24.4,221.9,18.9,210.9,18.9,206z"/>
		<path id="XMLID_132_" class="st0" d="M100.1,73.1c0-6.7-4.4-13.5-13.3-18.6c-17.8-10.3-46.6-10.3-64.4,0
			C13.5,59.7,9.1,66.4,9.1,73.1h0v20.2h0c0,6.7,4.4,13.5,13.3,18.6c17.8,10.3,46.6,10.3,64.4,0c8.9-5.1,13.3-11.9,13.3-18.6l0,0
			V73.1L100.1,73.1z"/>
		<g id="XMLID_103_">
			<defs>
				<path id="XMLID_104_" d="M100.1,73.1c0-6.7-4.4-13.5-13.3-18.6c-17.8-10.3-46.6-10.3-64.4,0C13.5,59.7,9.1,66.4,9.1,73.1h0v20.2
					h0c0,6.7,4.4,13.5,13.3,18.6c17.8,10.3,46.6,10.3,64.4,0c8.9-5.1,13.3-11.9,13.3-18.6l0,0V73.1L100.1,73.1z"/>
			</defs>
			<clipPath id="XMLID_2_">
				<use xlink:href="#XMLID_104_"  style="overflow:visible;"/>
			</clipPath>
			<g id="XMLID_107_" class="st10">
				<g id="XMLID_130_">
					<rect id="XMLID_131_" x="99.1" y="71.3" width="2.2" height="31.4"/>
				</g>
				<g id="XMLID_128_">
					<rect id="XMLID_129_" x="94" y="79.7" width="2.2" height="31.6"/>
				</g>
				<g id="XMLID_126_">
					<rect id="XMLID_127_" x="86.4" y="85.6" width="2.2" height="31.7"/>
				</g>
				<g id="XMLID_124_">
					<rect id="XMLID_125_" x="77.8" y="89.2" width="2.2" height="31.9"/>
				</g>
				<g id="XMLID_122_">
					<rect id="XMLID_123_" x="68.2" y="91.6" width="2.2" height="32.1"/>
				</g>
				<g id="XMLID_120_">
					<rect id="XMLID_121_" x="58.1" y="92.8" width="2.2" height="32.2"/>
				</g>
				<g id="XMLID_118_">
					<rect id="XMLID_119_" x="47.9" y="92.8" width="2.2" height="32.4"/>
				</g>
				<g id="XMLID_116_">
					<rect id="XMLID_117_" x="37.9" y="91.4" width="2.2" height="32.6"/>
				</g>
				<g id="XMLID_114_">
					<rect id="XMLID_115_" x="28.5" y="88.8" width="2.2" height="32.7"/>
				</g>
				<g id="XMLID_112_">
					<rect id="XMLID_113_" x="20" y="84.6" width="2.2" height="32.9"/>
				</g>
				<g id="XMLID_110_">
					<rect id="XMLID_111_" x="13.3" y="78.8" width="2.2" height="33.1"/>
				</g>
				<g id="XMLID_108_">
					<rect id="XMLID_109_" x="8" y="69.4" width="2.2" height="33.3"/>
				</g>
			</g>
			<path id="XMLID_105_" class="st11" d="M65.5,118.8c-22.5,0.1-34.4-7.2-38-13.2c-2.7-4.5-3.2-12.9-3.2-21.2c0,0-2.5-18.9-2-19
				c0.3,0-5.4-1.3-9.8-2.2c-2.2,3.2-3.3,6.5-3.3,9.9h0v20.2h0c0,6.7,4.4,13.5,13.3,18.6C34.1,118.6,50.6,120.9,65.5,118.8z"/>
		</g>
		<path id="XMLID_102_" class="st12" d="M22.4,91.7C40.2,102,69,102,86.8,91.7c17.8-10.3,17.8-26.9,0-37.2
			c-17.8-10.3-46.6-10.3-64.4,0C4.6,64.8,4.6,81.4,22.4,91.7z"/>
		<path id="XMLID_101_" class="st2" d="M89.3,90.1c15.3-10.3,14.5-25.8-2.4-35.6c-8.7-5-20-7.5-31.3-7.7c-6.1,1-11.8,2.9-16.6,5.7
			c-15.4,8.8-15.4,26.3,0,35.1C52.6,95.5,73.9,96.3,89.3,90.1z"/>
		<path id="XMLID_99_" class="st8" d="M26.7,218.5c15.4,7.7,40.4,7.7,55.8,0c15.4-7.7,15.4-20.3,0-28c-15.4-7.7-40.4-7.7-55.8,0
			C11.3,198.2,11.3,210.8,26.7,218.5z"/>
		<path id="XMLID_92_" class="st13" d="M11.7,121.7c0,6.3,4.2,12.7,12.6,17.5c8.4,4.8,19.4,7.3,30.4,7.3l0,43.7
			c-11,0-22-2.4-30.4-7.3c-8.4-4.8-12.6-11.2-12.6-17.5V121.7z"/>
		<path id="XMLID_3_" class="st5" d="M12.6,83.2c0,0,14.8,14.9,43.4,14.1c28.6-0.8,40-16.4,41.6-21.2c1.5-4.8,0.5-11.1-3.9-16.5
			c3.8,3.6,6.4,8.3,6.5,13.5c0,7.6,0,20.2,0,20.2c0,1.7,0.9,7.6-8.4,15.2c0,0,5.4-6.2,5.4-12.1c0-5.9,0-13.9,0-13.9
			S87.1,99.4,56,99.4C24.9,99.4,14.1,85.8,12.6,83.2z"/>
	</g>
</g>
<g id="Character" class="st1">
</g>
</svg>
