<?xml version="1.0" encoding="utf-8"?>
<!-- Generator: Adobe Illustrator 21.0.0, SVG Export Plug-In . SVG Version: 6.00 Build 0)  -->
<svg version="1.1" id="Layer_1" xmlns="http://www.w3.org/2000/svg" xmlns:xlink="http://www.w3.org/1999/xlink" x="0px" y="0px"
	 viewBox="0 0 18 18" style="enable-background:new 0 0 18 18;" xml:space="preserve">
<style type="text/css">
	.st0{fill:none;}
	.st1{fill:#777777;}
</style>
<path class="st0" d="M0,0h18v18H0V0z"/>
<path class="st1" d="M9,1.5C4.9,1.5,1.5,4.9,1.5,9s3.4,7.5,7.5,7.5s7.5-3.4,7.5-7.5S13.1,1.5,9,1.5z M9,3.8c1.2,0,2.3,1,2.3,2.3
	s-1,2.3-2.3,2.3S6.8,7.2,6.8,6S7.8,3.8,9,3.8z M9,14.4c-1.9,0-3.5-1-4.5-2.4c0-1.5,3-2.3,4.5-2.3c1.5,0,4.5,0.8,4.5,2.3
	C12.5,13.4,10.9,14.4,9,14.4z"/>
</svg>
