<?xml version="1.0" ?><!DOCTYPE svg  PUBLIC '-//W3C//DTD SVG 1.1//EN'  'http://www.w3.org/Graphics/SVG/1.1/DTD/svg11.dtd'><svg enable-background="new 0 0 64 64" height="64px" version="1.1" viewBox="0 0 64 64" width="64px" xml:space="preserve" xmlns="http://www.w3.org/2000/svg" xmlns:xlink="http://www.w3.org/1999/xlink"><g id="_x35_0_China"/><g id="_x34_9_fever"/><g id="_x34_8_Thermo_Head"/><g id="_x34_7_Call_Hospital"/><g id="_x34_6_Hospital_Bed"/><g id="_x34_5_Eye"/><g id="_x34_4_Ambulance"/><g id="_x34_3_disinfectant"/><g id="_x34_2_Antibody"/><g id="_x34_1_Death"/><g id="_x34_0_Isolation_Room"/><g id="_x33_9_Soap"/><g id="_x33_8_Corona_Virus"/><g id="_x33_7_Medic"/><g id="_x33_6_Vitamin"/><g id="_x33_5_Diare"/><g id="_x33_4_Hand_sanitizer"/><g id="_x33_3_Soap"/><g id="_x33_2_Wash_Hand"/><g id="_x33_1_Wash_with_Soap"/><g id="_x33_0_Stethoscope"/><g id="_x32_9_Lockdown"/><g id="_x32_8_Bat"/><g id="_x32_7_Pills"/><g id="_x32_6_Airborne"/><g id="_x32_5_Lockdown"/><g id="_x32_4_Siocial_Distance"/><g id="_x32_3_Thermometer"/><g id="_x32_2_Hand_Soap"/><g id="_x32_1_Alcohol"/><g id="_x32_0_Vaccine"/><g id="_x31_9_Clinic"><g><path d="M28,20h2v2c0,1.104,0.896,2,2,2s2-0.896,2-2v-2h2c1.104,0,2-0.896,2-2s-0.896-2-2-2h-2v-2c0-1.104-0.896-2-2-2    s-2,0.896-2,2v2h-2c-1.104,0-2,0.896-2,2S26.896,20,28,20z"/><path d="M62,26h-4v-6c0-1.104-0.896-2-2-2H44V8c0-1.104-0.896-2-2-2H22c-1.104,0-2,0.896-2,2v10H8c-1.104,0-2,0.896-2,2v6H2    c-1.104,0-2,0.896-2,2v28c0,1.104,0.896,2,2,2h60c1.104,0,2-0.896,2-2V28C64,26.896,63.104,26,62,26z M60,46h-6v-8h6V46z M54,22v4    H44v-4H54z M24,10h16v10v6H24V10z M10,22h10v4H10V22z M4,38h6v8H4V38z M40,44v10h-6V44H40z M30,54h-6V44h6V54z M44,54V42    c0-1.104-0.896-2-2-2H22c-1.104,0-2,0.896-2,2v12H4v-4h8c1.104,0,2-0.896,2-2V36c0-1.104-0.896-2-2-2H4v-4h56v4h-8    c-1.104,0-2,0.896-2,2v12c0,1.104,0.896,2,2,2h8v4H44z"/><path d="M40,34H24c-1.104,0-2,0.896-2,2s0.896,2,2,2h16c1.104,0,2-0.896,2-2S41.104,34,40,34z"/></g></g><g id="_x31_8_Check_Up"/><g id="_x31_7_Pneumonia"/><g id="_x31_6_Masker"/><g id="_x31_5_Use_Masker"/><g id="_x31_4_No_Travel"/><g id="_x31_3_No_crowd"/><g id="_x31_2_Work_from_Home"/><g id="_x31_1_Quarantine"/><g id="_x31_0_Face_Contact"/><g id="_x30_9_Headache"/><g id="_x30_8_Puke"/><g id="_x30_7_Sore_Throath"/><g id="_x30_6_Breathe"/><g id="_x30_5_Cough"/><g id="_x30_4_Blood"/><g id="_x30_3_Microscope"/><g id="_x30_2_Pandemic"/><g id="_x30_1_Corona_Virus"/></svg>